<svg width="267" height="80" viewBox="0 0 267 80" fill="none" xmlns="http://www.w3.org/2000/svg">
<rect x="1.53208" y="0.794897" width="263.947" height="77.7107" rx="38.8554" fill="white" fill-opacity="0.18" stroke="url(#paint0_linear_5_2034)" stroke-width="1.15435"/>
<rect x="6.71222" y="7.51514" width="253.588" height="64.2702" rx="32.1351" fill="white"/>
<circle cx="41.9485" cy="39.6911" r="23.7844" fill="#1E1E1E"/>
<path d="M33.3011 49.705C33.0902 49.2968 32.9286 48.8675 32.8302 48.4101C32.7178 47.9457 32.6686 47.4671 32.6686 46.9605C32.6686 46.4538 32.7529 45.7853 32.9286 44.9549C33.1043 44.1245 33.3432 43.2449 33.6454 42.33C33.9476 41.4082 34.299 40.4652 34.6996 39.5011C35.1002 38.537 35.5288 37.6011 35.9786 36.6792C36.8992 34.7722 37.8199 33.1184 38.7405 31.7251H38.5789C37.4544 31.7251 36.4143 31.9784 35.4515 32.4921C35.2196 32.6751 34.9947 32.7595 34.7769 32.7595C34.3271 32.7595 33.8844 32.5344 33.4627 32.091C32.4788 31.0495 33.0692 30.191 35.2196 29.5154C36.2316 29.1847 37.0398 29.0158 37.6582 29.0158C38.2767 29.0158 38.7756 29.1143 39.1481 29.3043C39.5206 29.4943 39.8438 29.7265 40.1109 29.9939C40.5255 30.4091 40.8207 30.8173 40.9964 31.2254C41.1721 31.6336 41.2564 31.9855 41.2564 32.2951C41.2564 32.6047 41.165 33.0129 40.9823 33.5266C40.7996 34.0403 40.5677 34.5892 40.2796 35.1733L39.3168 37.0452C38.9794 37.6996 38.6351 38.3822 38.2978 39.1C37.9604 39.8178 37.6161 40.5356 37.2787 41.2534C36.9414 41.9711 36.6392 42.6678 36.3722 43.3504C35.7959 44.8704 35.5078 46.1582 35.5078 47.2208C35.5078 47.8612 35.571 48.389 35.6905 48.8042C36.1051 48.1427 36.6111 47.4531 37.2155 46.7353L39.1973 44.5115C41.4883 42.0345 42.9782 40.3948 43.6669 39.5856C45.2762 37.6855 46.5131 35.8981 47.3705 34.2162C47.7219 33.5477 47.8905 32.9355 47.8905 32.3866C47.8905 31.3732 47.6094 30.6132 47.0542 30.1065C46.8575 29.9095 46.8294 29.6702 46.9769 29.3817C47.1245 29.0932 47.2721 28.8891 47.4197 28.7413C47.7851 28.4106 48.1998 28.2417 48.6636 28.2417C49.1274 28.2417 49.5139 28.3332 49.8372 28.5232C50.1605 28.7132 50.4205 28.9524 50.6173 29.248C51.0249 29.8251 51.2287 30.5358 51.2287 31.3943C51.2287 32.2458 51.046 33.1536 50.6875 34.1036C50.3221 35.0607 49.8513 35.9896 49.2609 36.9044C48.6706 37.8122 48.003 38.6989 47.251 39.5504C46.4991 40.4019 45.733 41.2182 44.953 41.9923L40.6801 46.0316C39.387 47.3334 38.5226 48.2272 38.0939 48.7057C37.2647 49.6346 36.7306 50.2398 36.4987 50.5353C36.2668 50.8309 36.0489 50.9998 35.8591 51.0561C35.6694 51.1124 35.4164 51.1405 35.0931 51.1405C34.7699 51.1405 34.4466 50.9998 34.1093 50.7183C33.786 50.4509 33.5119 50.1061 33.3011 49.705Z" fill="white"/>
<path d="M75.4087 52.2741C75.1565 51.7858 74.9631 51.2722 74.8454 50.7249C74.7108 50.1693 74.652 49.5968 74.652 48.9906C74.652 48.3844 74.7529 47.5845 74.9631 46.591C75.1733 45.5975 75.4592 44.5451 75.8207 43.4506C76.1822 42.3477 76.6027 41.2195 77.0819 40.066C77.5612 38.9125 78.0741 37.7928 78.6122 36.6898C79.7136 34.4082 80.8151 32.4296 81.9166 30.7626H81.7232C80.3779 30.7626 79.1335 31.0657 77.9816 31.6803C77.7041 31.8992 77.4351 32.0002 77.1744 32.0002C76.6363 32.0002 76.1066 31.7308 75.6021 31.2004C74.425 29.9543 75.1312 28.9271 77.7041 28.1189C78.9149 27.7232 79.8818 27.5211 80.6217 27.5211C81.3616 27.5211 81.9586 27.639 82.4042 27.8663C82.8499 28.0936 83.2366 28.3715 83.5561 28.6914C84.0522 29.1881 84.4054 29.6765 84.6156 30.1648C84.8258 30.6531 84.9267 31.0741 84.9267 31.4445C84.9267 31.815 84.8174 32.3033 84.5987 32.9179C84.3801 33.5326 84.1027 34.1893 83.7579 34.8881L82.606 37.1276C82.2024 37.9106 81.7904 38.7273 81.3869 39.5861C80.9833 40.4449 80.5713 41.3036 80.1677 42.1624C79.7641 43.0212 79.4025 43.8547 79.083 44.6714C78.3936 46.49 78.0488 48.0307 78.0488 49.3021C78.0488 50.0682 78.1245 50.6997 78.2675 51.1964C78.7635 50.405 79.3689 49.5799 80.092 48.7211L82.4631 46.0606C85.2041 43.097 86.9866 41.1353 87.8106 40.167C89.7361 37.8938 91.2159 35.7553 92.2417 33.743C92.6621 32.9432 92.8639 32.2107 92.8639 31.554C92.8639 30.3416 92.5276 29.4323 91.8633 28.8261C91.6279 28.5904 91.5943 28.3041 91.7708 27.9589C91.9474 27.6137 92.124 27.3696 92.3005 27.1927C92.7378 26.797 93.2338 26.595 93.7888 26.595C94.3437 26.595 94.8062 26.7044 95.1929 26.9317C95.5797 27.1591 95.8908 27.4453 96.1262 27.7989C96.6139 28.4893 96.8577 29.3397 96.8577 30.3669C96.8577 31.3856 96.6391 32.4717 96.2103 33.6083C95.7731 34.7534 95.2097 35.8647 94.5035 36.9592C93.7972 38.0453 92.9984 39.1062 92.0988 40.1249C91.1991 41.1437 90.2826 42.1203 89.3493 43.0465L84.2372 47.8792C82.6901 49.4368 81.6559 50.5061 81.143 51.0786C80.1509 52.1899 79.5118 52.914 79.2344 53.2676C78.9569 53.6212 78.6963 53.8233 78.4692 53.8906C78.2422 53.958 77.9395 53.9917 77.5528 53.9917C77.166 53.9917 76.7792 53.8233 76.3756 53.4865C75.9889 53.1666 75.6609 52.754 75.4087 52.2741Z" fill="#1E1E1E"/>
<path d="M99.0945 50.7162C99.3888 50.7162 99.5318 50.9099 99.5318 51.2888C99.5318 51.7939 99.3047 52.3243 98.8339 52.8632C98.1528 53.6546 97.2448 54.0503 96.1097 54.0503C94.798 54.0503 93.9068 53.5199 93.4191 52.4591C93.2425 52.0886 93.15 51.634 93.15 51.1035C93.15 50.5731 93.2425 49.9838 93.4275 49.3355C93.6125 48.6872 93.8479 48.0052 94.1254 47.2811C94.4028 46.5655 94.7055 45.8414 95.0334 45.1005L95.9331 42.962C96.5889 41.3707 96.9168 40.3183 96.9168 39.8131C96.9168 39.308 96.8664 38.9712 96.7571 38.8028C96.6478 38.6344 96.5301 38.5165 96.4124 38.4239L96.076 38.1882C95.9667 38.1124 95.9079 37.9693 95.9079 37.7756C95.9079 37.582 95.9835 37.3884 96.1349 37.2115C96.2862 37.0347 96.488 36.8748 96.7319 36.7401C97.2364 36.4791 97.8333 36.3528 98.506 36.3528C100.162 36.3528 100.995 36.7906 100.995 37.6578C100.995 38.6765 100.726 39.8384 100.196 41.1434C99.6663 42.4484 99.2123 43.5008 98.8423 44.3007L97.8249 46.6413C97.0766 48.3588 96.7066 49.5965 96.7066 50.3542C96.7066 50.851 96.9505 51.1035 97.455 51.1035C97.9426 51.1035 98.3042 51.0446 98.5564 50.9183C98.8003 50.7752 98.9768 50.7162 99.0945 50.7162ZM102.559 32.3704C102.315 32.6398 102.029 32.8503 101.709 33.0103C101.39 33.1702 101.062 33.2797 100.709 33.3134C100.356 33.347 100.028 33.2965 99.7167 33.1534C99.4056 33.0103 99.1366 32.7998 98.9096 32.5304C98.4387 31.9663 98.1949 31.3938 98.1949 30.8128C98.1949 30.2319 98.2874 29.8025 98.4723 29.5162C98.6573 29.23 98.8927 28.9942 99.1786 28.8174C99.7167 28.4638 100.23 28.2954 100.709 28.2954C101.188 28.2954 101.558 28.3291 101.827 28.3964C102.096 28.4638 102.34 28.5733 102.567 28.7332C103.122 29.1037 103.399 29.5583 103.399 30.0972C103.399 30.636 103.324 31.0822 103.172 31.4358C103.021 31.7895 102.811 32.101 102.559 32.3704Z" fill="#1E1E1E"/>
<path d="M103.273 48.0303C103.298 47.0453 103.449 46.0686 103.735 45.092C104.021 44.1153 104.408 43.1892 104.887 42.322C105.366 41.4548 105.938 40.6465 106.594 39.9141C107.258 39.1816 107.973 38.5501 108.755 38.0197C110.377 36.8999 112.093 36.3442 113.884 36.3442C115.733 36.3442 116.995 37.0851 117.659 38.567C117.894 39.0974 118.003 39.7036 117.987 40.3687C117.97 41.0423 117.861 41.6569 117.659 42.2125C117.457 42.7682 117.205 43.2734 116.894 43.7112C116.204 44.7047 115.515 45.2014 114.808 45.2014C114.026 45.2014 113.455 44.9909 113.085 44.5616C112.757 44.1911 112.656 43.7533 112.782 43.2566C112.816 43.1134 112.917 42.9787 113.085 42.8608C113.253 42.743 113.472 42.5493 113.732 42.2967C114.464 41.5306 114.85 40.6297 114.884 39.6025C114.909 38.9037 114.481 38.5501 113.598 38.5501C112.648 38.5501 111.655 39.0805 110.621 40.1414C109.108 41.6905 108.04 43.6691 107.426 46.0939C106.888 48.1987 106.989 49.7311 107.729 50.6993C108.166 51.2634 108.763 51.5496 109.52 51.5496C110.798 51.5496 112.025 51.095 113.211 50.1941C113.572 49.9079 113.867 49.6216 114.094 49.3269C114.321 49.0322 114.531 48.8891 114.716 48.8891C114.909 48.8891 115.069 48.9817 115.195 49.167C115.321 49.3522 115.389 49.5963 115.389 49.891C115.389 50.5562 115.086 51.2129 114.489 51.8527C112.95 53.3177 111.109 54.0586 108.956 54.0586C107.115 54.0586 105.694 53.5366 104.693 52.4842C103.701 51.4318 103.222 49.9584 103.273 48.0303Z" fill="#1E1E1E"/>
<path d="M129.313 49.4449C129.641 49.4449 129.801 49.6638 129.801 50.11C129.801 50.4805 129.691 50.8425 129.464 51.1961C129.162 51.8528 128.548 52.4759 127.64 53.0568C126.606 53.722 125.555 54.0587 124.512 54.0587C122.696 54.0587 121.544 53.242 121.056 51.6171C120.484 49.6891 121.342 45.5888 123.646 39.3332C122.351 39.2238 121.645 38.9964 121.527 38.6512C121.493 38.5502 121.477 38.4408 121.477 38.3229C121.477 38.205 121.527 38.0703 121.636 37.9103C121.746 37.7504 121.88 37.5988 122.048 37.4557C122.444 37.1273 122.847 36.9674 123.251 36.9674H124.588C125.807 34.1132 126.673 32.4798 127.194 32.0841C127.438 31.9073 127.715 31.8147 128.026 31.8147C128.338 31.8147 128.581 31.8568 128.792 31.9326C129.002 32.0083 129.178 32.1262 129.33 32.2693C129.691 32.6061 129.868 32.985 129.868 33.406C129.868 33.6333 129.801 33.8943 129.666 34.189L128.413 36.9169H128.817C129.515 36.9169 130.078 36.9084 130.507 36.9L131.474 36.8832C131.684 36.8748 131.953 36.8663 132.281 36.8663C132.6 36.8663 132.76 36.9842 132.76 37.2199C132.76 38.7102 131.003 39.4595 127.48 39.4595H127.345L126.194 42.44C124.899 45.9677 124.251 48.4346 124.251 49.849C124.251 50.2447 124.344 50.5478 124.52 50.7752C124.697 50.9941 125.042 51.1035 125.538 51.1035C126.034 51.1035 126.488 51.0193 126.891 50.8509C127.295 50.6826 127.657 50.4889 127.959 50.2868C128.262 50.0764 128.523 49.8911 128.75 49.7227C128.977 49.5544 129.162 49.4449 129.313 49.4449Z" fill="#1E1E1E"/>
<path d="M133.483 52.7284C133.012 52.2737 132.634 51.7012 132.365 51.0108C132.096 50.3204 131.953 49.4953 131.945 48.5439C131.936 47.5925 132.045 46.6327 132.289 45.6645C132.533 44.6963 132.878 43.7533 133.323 42.8524C133.769 41.9515 134.307 41.1012 134.929 40.3098C135.56 39.5183 136.25 38.828 137.006 38.2386C138.654 36.9757 140.361 36.3442 142.135 36.3442C144.456 36.3442 146.037 37.363 146.861 39.4089C147.449 40.8907 147.483 42.6756 146.961 44.7805C146.491 46.7085 145.616 48.485 144.355 50.1015C143.102 51.718 141.622 52.8631 139.924 53.545C139.066 53.8818 138.225 54.0502 137.393 54.0502C136.561 54.0502 135.821 53.9408 135.173 53.7303C134.517 53.5114 133.954 53.183 133.483 52.7284ZM136.712 44.511C136.376 45.3446 136.107 46.2033 135.905 47.0874C135.703 47.9714 135.61 48.8049 135.627 49.5879C135.636 50.3709 135.762 50.9856 135.989 51.4318C136.216 51.878 136.594 52.0969 137.116 52.0969C137.637 52.0969 138.141 51.9201 138.646 51.5665C139.15 51.2129 139.638 50.7414 140.109 50.152C140.58 49.5627 141.025 48.8891 141.446 48.1145C141.866 47.3484 142.228 46.5401 142.547 45.7066C143.237 43.888 143.565 42.2715 143.548 40.857C143.548 39.611 143.295 38.8195 142.783 38.4828C142.581 38.348 142.295 38.2807 141.925 38.2807C141.555 38.2807 141.135 38.4491 140.664 38.7774C140.193 39.1142 139.714 39.5604 139.243 40.1245C138.772 40.6886 138.309 41.3538 137.872 42.1115C137.443 42.8777 137.048 43.6691 136.712 44.511Z" fill="#1E1E1E"/>
<path d="M149.795 53.4782C149.568 53.3098 149.392 53.1162 149.257 52.9141C149.123 52.712 149.047 52.5268 149.038 52.3752C149.03 52.2237 149.055 52.0385 149.131 51.8196C149.207 51.6007 149.299 51.3312 149.425 51.0113C151.729 45.3366 152.881 41.5311 152.881 39.5862C152.847 39.0474 152.662 38.6601 152.326 38.4327L151.99 38.197C151.889 38.1212 151.838 37.9781 151.83 37.7845C151.822 37.5908 151.897 37.3972 152.04 37.2203C152.183 37.0435 152.376 36.8836 152.612 36.7489C153.1 36.4879 153.596 36.3616 154.109 36.3616C154.621 36.3616 155.025 36.4205 155.311 36.53C155.597 36.6394 155.841 36.7994 156.051 36.9846C156.48 37.3887 156.698 37.8181 156.707 38.2728C156.715 38.7274 156.665 39.1821 156.555 39.6451C156.446 40.1082 156.32 40.5628 156.177 41.0091C156.034 41.4553 155.883 41.8763 155.74 42.2804C155.597 42.6845 155.496 42.9792 155.454 43.1729C155.361 43.5686 155.328 43.8127 155.353 43.9222C155.622 43.6864 155.79 43.4507 155.841 43.2234L156.505 41.9689C157.968 39.3252 159.406 37.574 160.801 36.7152C161.205 36.4794 161.693 36.3616 162.264 36.3616C162.836 36.3616 163.29 36.5636 163.643 36.9593C163.996 37.3551 164.173 37.8013 164.19 38.2896C164.207 38.7779 164.173 39.1821 164.089 39.502C164.005 39.8219 163.879 40.125 163.711 40.4113C163.341 41.0427 162.887 41.3627 162.357 41.3627C162.214 41.3627 162.071 41.3122 161.953 41.2111L161.583 40.8912C161.213 40.5628 160.852 40.4029 160.507 40.4029C160.162 40.4029 159.742 40.6302 159.254 41.0764C158.767 41.5311 158.254 42.112 157.724 42.8192C155.942 45.1767 154.487 47.8288 153.36 50.7503L152.612 52.712C152.419 53.2003 152.25 53.5455 152.107 53.756C151.964 53.9665 151.746 54.0675 151.46 54.0675C151.174 54.0675 150.888 54.017 150.594 53.9076C150.274 53.7813 150.022 53.6466 149.795 53.4782Z" fill="#1E1E1E"/>
<path d="M178.836 42.7855C178.508 42.7771 178.172 42.7518 177.811 42.7265C177.457 42.7013 177.037 42.676 176.549 42.6676C175.49 42.6424 174.338 42.6929 173.094 42.8023C172.808 43.7706 172.345 44.9661 171.698 46.389C171.051 47.8034 170.411 49.0074 169.781 49.9925C168.427 52.0973 167.048 53.3939 165.653 53.8907C165.451 53.9664 165.241 54.0085 165.039 54.0085C164.829 54.0085 164.644 53.9749 164.475 53.8991C164.307 53.8233 164.164 53.7307 164.055 53.6212C163.82 53.4108 163.702 53.1666 163.702 52.914C163.702 52.6614 163.786 52.4594 163.954 52.3415C165.56 51.1796 167.2 48.2497 168.898 43.5432C168.772 43.5769 168.646 43.6106 168.528 43.6443C168.41 43.6779 168.293 43.7116 168.209 43.7453C168.116 43.779 168.015 43.7958 167.897 43.7958C167.78 43.7958 167.654 43.7621 167.511 43.6864C167.368 43.6106 167.242 43.5264 167.132 43.4254C166.889 43.198 166.762 42.9791 166.762 42.7602C166.762 42.5413 166.863 42.3477 167.057 42.1624C167.25 41.9772 167.502 41.8004 167.797 41.632C168.335 41.3121 169.024 41.0258 169.848 40.748L170.765 37.9022C171.841 34.5682 172.867 32.2612 173.842 30.9731C172.917 30.8973 172.236 30.8552 171.79 30.8552C170.462 30.8552 169.503 31.0404 168.915 31.4193C168.343 31.7898 167.931 32.1939 167.704 32.6317C167.469 33.0695 167.351 33.3726 167.343 33.541C167.309 33.8609 167.208 34.0546 167.04 34.1388C166.872 34.223 166.661 34.2651 166.418 34.2651C166.174 34.2651 165.922 34.1809 165.661 34.0041C165.4 33.8273 165.19 33.6084 165.022 33.3389C164.66 32.7833 164.517 32.1602 164.602 31.4698C164.677 30.771 164.913 30.1732 165.283 29.6765C165.661 29.1713 166.107 28.7672 166.628 28.4473C167.586 27.8579 168.595 27.5632 169.663 27.5632C170.731 27.5632 171.74 27.6137 172.69 27.7232C173.64 27.8326 174.59 27.9505 175.54 28.0852C178.054 28.422 179.66 28.5904 180.35 28.5904C181.039 28.5904 181.552 28.5483 181.88 28.4725C182.216 28.3967 182.502 28.2789 182.738 28.1189C182.973 27.9589 183.141 27.8579 183.234 27.8074C183.326 27.7569 183.486 27.7316 183.696 27.7316C184.033 27.7316 184.184 27.9926 184.133 28.5062C184.091 29.0198 183.965 29.4576 183.764 29.828C183.562 30.1985 183.293 30.4932 182.965 30.7373C182.301 31.2257 181.451 31.4698 180.426 31.4698C179.4 31.4698 178.155 31.4025 176.684 31.2678C176.314 32.0255 175.952 33.019 175.616 34.2482L174.061 39.8387C175.12 39.6703 175.927 39.5861 176.491 39.5861C177.054 39.5861 177.508 39.6451 177.869 39.7545C178.231 39.864 178.551 40.0239 178.836 40.226C179.492 40.6638 179.812 41.2111 179.803 41.8509C179.77 42.4571 179.459 42.7855 178.836 42.7855Z" fill="#1E1E1E"/>
<path d="M182.663 53.1998C182.377 52.9051 182.15 52.5263 181.973 52.0716C181.797 51.617 181.713 51.0866 181.713 50.4804C181.713 49.8742 181.847 49.0659 182.125 48.0472C182.402 47.0284 182.755 45.875 183.184 44.57L184.605 40.3518C186.623 34.4751 187.792 29.9371 188.111 26.7293C188.212 25.7779 188.675 25.3064 189.499 25.3064C190.02 25.3064 190.449 25.4327 190.785 25.6768C191.441 26.1736 191.752 26.7293 191.735 27.3355C191.71 27.9417 191.609 28.691 191.416 29.5666C191.222 30.4422 190.978 31.3936 190.667 32.4292C190.365 33.4648 190.012 34.5593 189.616 35.7128L187.279 42.5914C185.934 46.498 185.261 49.0238 185.261 50.1688C185.261 50.775 185.505 51.0866 186.009 51.0866C186.48 51.0866 186.917 50.9855 187.304 50.7835C187.691 50.5814 187.943 50.4804 188.061 50.4804C188.296 50.4804 188.414 50.5982 188.414 50.834C188.414 51.8359 187.901 52.6778 186.875 53.3598C186.186 53.8229 185.555 54.0586 184.992 54.0586C184.429 54.0586 183.966 53.9912 183.613 53.8565C183.26 53.7218 182.94 53.4945 182.663 53.1998Z" fill="#1E1E1E"/>
<path d="M193.088 52.7284C192.618 52.2737 192.239 51.7012 191.97 51.0108C191.701 50.312 191.558 49.4953 191.55 48.5439C191.541 47.5925 191.651 46.6327 191.894 45.6645C192.138 44.6963 192.483 43.7533 192.929 42.8524C193.374 41.9515 193.912 41.1012 194.535 40.3098C195.165 39.5183 195.855 38.828 196.611 38.2386C198.259 36.9757 199.966 36.3442 201.74 36.3442C204.061 36.3442 205.642 37.363 206.466 39.4089C207.054 40.8907 207.088 42.6756 206.567 44.7805C206.096 46.7085 205.221 48.485 203.96 50.1015C202.707 51.718 201.227 52.8631 199.529 53.545C198.671 53.8818 197.831 54.0502 196.998 54.0502C196.166 54.0502 195.426 53.9408 194.778 53.7303C194.123 53.5114 193.559 53.183 193.088 52.7284ZM196.317 44.511C195.981 45.3446 195.712 46.2033 195.51 47.0874C195.308 47.9714 195.216 48.8049 195.232 49.5879C195.241 50.3709 195.367 50.9856 195.594 51.4318C195.821 51.878 196.199 52.0969 196.721 52.0969C197.242 52.0969 197.746 51.9201 198.251 51.5665C198.755 51.2129 199.243 50.7414 199.714 50.152C200.185 49.5627 200.63 48.8891 201.051 48.1145C201.471 47.3484 201.833 46.5401 202.152 45.7066C202.842 43.888 203.17 42.2715 203.153 40.857C203.153 39.611 202.901 38.8195 202.388 38.4828C202.186 38.348 201.9 38.2807 201.53 38.2807C201.16 38.2807 200.74 38.4491 200.269 38.7774C199.798 39.1142 199.319 39.5604 198.848 40.1245C198.377 40.6886 197.915 41.3538 197.477 42.1115C197.049 42.8777 196.662 43.6691 196.317 44.511Z" fill="#1E1E1E"/>
<path d="M214.941 51.9374C213.402 53.3014 212.191 53.9834 211.317 53.9834C210.442 53.9834 209.837 53.5287 209.501 52.6278C209.375 52.3079 209.316 52.0216 209.316 51.7438C209.316 51.0113 209.433 50.2957 209.66 49.6053C209.887 48.9149 210.123 48.275 210.35 47.6772L211.838 43.8296C212.41 42.2636 212.763 41.1606 212.889 40.546C213.015 39.9314 212.998 39.502 212.839 39.2831C212.679 39.0642 212.494 38.8706 212.292 38.7106C212.082 38.5506 211.889 38.3991 211.695 38.2728C211.51 38.1465 211.418 37.9781 211.418 37.7845C211.418 37.5908 211.502 37.3972 211.662 37.2203C211.821 37.0435 212.04 36.8836 212.317 36.7489C212.855 36.4879 213.419 36.3616 213.999 36.3616C214.579 36.3616 215.042 36.4205 215.369 36.5384C215.706 36.6563 215.975 36.8078 216.193 36.9846C216.614 37.3551 216.816 37.8097 216.816 38.3317C216.816 38.8537 216.732 39.4515 216.555 40.0998C216.378 40.7565 216.16 41.4469 215.891 42.1878C215.622 42.9203 215.327 43.6864 215 44.4779L214.066 46.8185C213.335 48.7044 212.889 50.1189 212.729 51.0534C213.789 50.6914 215.193 49.3948 216.942 47.1552C218.85 44.7052 220.532 41.9099 222.003 38.7695C222.172 38.3738 222.382 38.1212 222.634 38.0034C223.038 37.8097 223.551 37.7255 224.173 37.7508C225.156 37.7845 225.661 38.0875 225.695 38.6685C225.72 39.0221 225.627 39.4094 225.417 39.8304C225.207 40.2513 225.039 40.6049 224.904 40.8912L224.24 42.2467C222.92 44.9241 222.256 47.0963 222.256 48.7717C222.256 49.9336 222.575 50.7335 223.206 51.1629C223.382 51.2976 223.66 51.3649 224.038 51.3649C224.408 51.3649 224.854 51.2302 225.358 50.9692C225.863 50.7082 226.35 50.3378 226.813 49.8747C227.275 49.4116 227.704 48.8728 228.108 48.2582C228.511 47.6436 228.856 46.9868 229.15 46.288C229.773 44.8062 230.084 43.5012 230.084 42.3562C230.084 40.4029 229.714 38.9632 228.982 38.037C228.73 37.7424 228.806 37.3972 229.201 37.0014C229.621 36.5805 230.269 36.37 231.16 36.37C232.253 36.37 233.001 36.9846 233.396 38.2138C233.556 38.6769 233.632 39.3757 233.632 40.3018C233.632 41.228 233.472 42.2636 233.144 43.3918C232.816 44.5284 232.371 45.6145 231.816 46.6585C231.261 47.7025 230.613 48.6791 229.89 49.58C229.159 50.4809 228.394 51.2723 227.595 51.9374C225.88 53.3603 224.29 54.076 222.819 54.076C220.305 54.076 219.044 52.451 219.044 49.1927C219.044 48.4434 219.111 47.7193 219.246 47.0037C217.917 48.9317 216.488 50.5819 214.941 51.9374Z" fill="#1E1E1E"/>
<defs>
<linearGradient id="paint0_linear_5_2034" x1="-11.3308" y1="0.117652" x2="-6.9663" y2="92.6679" gradientUnits="userSpaceOnUse">
<stop stop-color="white"/>
<stop offset="0.468336" stop-color="white" stop-opacity="0.39"/>
<stop offset="1" stop-color="white" stop-opacity="0.87"/>
</linearGradient>
</defs>
</svg>
